<svg width="1440" height="1024" viewBox="0 0 1440 1024" fill="none" xmlns="http://www.w3.org/2000/svg">
<g clip-path="url(#clip0_1486_5521)">
<rect width="1440" height="1024" fill="#1E1A4D"/>
<path d="M1222.5 257L1223.61 277.571L1241.99 268.25L1224.73 279.5L1241.99 290.75L1223.61 281.429L1222.5 302L1221.39 281.429L1203.01 290.75L1220.27 279.5L1203.01 268.25L1221.39 277.571L1222.5 257Z" fill="#D9D9D9"/>
<path d="M345.918 116L-6 369.635V1053L1462 1033.99V432.169L1283.53 170.029L1144.27 477.193L916.527 276.085L719.956 385.644L345.918 116Z" fill="#1F2E5D" stroke="black"/>
<path d="M336.315 203L-18 456.365V1139L1460 1120.01V518.831L1298.5 291.5L1182.5 579L910.812 362.915L712.901 472.356L336.315 203Z" fill="#29386B"/>
<path d="M97 504L-0.5 726.5V1054H1011.5L717 599.5L693 699L656.5 531.5L610.5 699L595.5 575.5L500 761.5L323.5 430.5L299.5 561L231.5 347.5L156 575.5V430.5L71.5 699L97 504Z" fill="#29245E"/>
<path d="M1926.5 534.5L2024 757V1084.5H1012L1306.5 630L1330.5 729.5L1367 562L1413 729.5L1428 606L1523.5 792L1700 461L1724 591.5L1792 378L1867.5 606V461L1952 729.5L1926.5 534.5Z" fill="#29245E"/>
<path d="M364 781.5L161.5 1022.5V1035.5H1445.5V894L1225 688L1062 742.5L846 561L498 943.5L364 781.5Z" fill="#1F2F65"/>
<path d="M362 834L187.5 1049L235 1067H1446V962.5L1218.5 749.5L1058 803.5L844.5 629L501 993L362 834Z" fill="#213E6D"/>
<path d="M961.5 34L961.972 55.6816L980.986 45.25L962.445 56.5L980.986 67.75L961.972 57.3184L961.5 79L961.028 57.3184L942.014 67.75L960.555 56.5L942.014 45.25L961.028 55.6816L961.5 34Z" fill="#D9D9D9"/>
<path d="M204 25L204.257 40.4666L216.509 31.0242L204.577 40.8683L219.599 44.5603L204.463 41.3691L210.942 55.4155L204 41.592L197.058 55.4155L203.537 41.3691L188.401 44.5603L203.423 40.8683L191.491 31.0242L203.743 40.4666L204 25Z" fill="#D9D9D9"/>
<path d="M767.5 167L768.614 187.571L786.986 178.25L769.728 189.5L786.986 200.75L768.614 191.429L767.5 212L766.386 191.429L748.014 200.75L765.272 189.5L748.014 178.25L766.386 187.571L767.5 167Z" fill="#D9D9D9"/>
</g>
<defs>
<clipPath id="clip0_1486_5521">
<rect width="1440" height="1024" fill="white"/>
</clipPath>
</defs>
</svg>
