<svg width="80" height="80" viewBox="0 0 80 80" fill="none" xmlns="http://www.w3.org/2000/svg">
<path d="M40.0322 22.1416C49.9054 22.1416 57.9393 30.1747 57.9395 40.0479C57.9395 49.9211 49.9055 57.9551 40.0322 57.9551C30.1591 57.9549 22.126 49.921 22.126 40.0479C22.1262 30.1748 30.1592 22.1418 40.0322 22.1416ZM40.0322 24.2461C31.3195 24.2463 24.2306 31.3351 24.2305 40.0479C24.2305 48.7608 31.3194 55.8504 40.0322 55.8506C48.7452 55.8506 55.835 48.7609 55.835 40.0479C55.8348 31.335 48.7451 24.2461 40.0322 24.2461Z" fill="white" stroke="white" stroke-width="0.70137"/>
<mask id="path-2-outside-1_1447_5580" maskUnits="userSpaceOnUse" x="11" y="11" width="58" height="58" fill="black">
<rect fill="white" x="11" y="11" width="58" height="58"/>
<path d="M68.0651 32.731C67.3911 30.1556 66.3746 27.6871 65.0295 25.4024C64.8952 25.1777 64.6432 25.0435 64.3911 25.0599L59.0897 25.3257C57.8349 23.7065 56.3829 22.2544 54.761 20.9969L55.0267 15.6955C55.0404 15.4352 54.9062 15.1914 54.6842 15.0571C52.3966 13.7092 49.9363 12.6927 47.3556 12.0215C47.1036 11.9585 46.8378 12.0352 46.6625 12.2325L43.1009 16.175C41.131 15.9147 38.9556 15.9147 36.9858 16.175L33.4241 12.2325C33.2488 12.0352 32.9748 11.9585 32.731 12.0215C30.1501 12.6955 27.6871 13.7202 25.4024 15.0571C25.1777 15.1914 25.0435 15.4352 25.0599 15.6955L25.3257 20.9969C23.7065 22.2517 22.2462 23.7037 20.9969 25.3257L15.6955 25.0599C15.4215 25.0462 15.1914 25.1805 15.0571 25.4024C13.7092 27.69 12.6873 30.1585 12.0215 32.731C11.9585 32.983 12.0352 33.2488 12.2325 33.4241L16.175 36.9858C16.0407 37.9748 15.9777 38.9995 15.9777 40.0433C15.9777 41.0872 16.0407 42.1118 16.175 43.1009L12.2325 46.6625C12.0352 46.8378 11.9585 47.1036 12.0215 47.3556C12.6955 49.931 13.712 52.3995 15.0571 54.6842C15.1914 54.9089 15.4352 55.0431 15.6955 55.0267L20.9969 54.761C22.2517 56.3801 23.7037 57.8322 25.3257 59.0897L25.0599 64.3911C25.0462 64.6514 25.1804 64.8952 25.4024 65.0295C27.69 66.3774 30.1503 67.3939 32.731 68.0651C32.983 68.1281 33.2488 68.0514 33.4241 67.8541L36.9858 63.9116C38.9556 64.1719 41.131 64.1719 43.1009 63.9116L46.6625 67.8541C46.7858 68.0158 46.9748 68.1007 47.1721 68.1007C47.2269 68.1007 47.2926 68.0925 47.3474 68.0788C49.9282 67.4048 52.3912 66.3801 54.676 65.0432C54.9007 64.9089 55.0349 64.6651 55.0185 64.4048L54.7527 59.1034C56.3719 57.8486 57.8322 56.3966 59.0815 54.7746L64.3829 55.0404C64.6569 55.0541 64.887 54.9199 65.0213 54.6979C66.3692 52.4103 67.3911 49.9418 68.0569 47.3693C68.1199 47.1173 68.0432 46.8515 67.8459 46.6762L63.9034 43.1146C64.0377 42.1255 64.1007 41.1008 64.1007 40.057C64.1007 39.0132 64.0377 37.9885 63.9034 36.9995L67.8459 33.4378C68.0514 33.2488 68.1281 32.983 68.0651 32.731ZM62.7007 36.1967C62.5254 36.3501 62.4404 36.5885 62.4761 36.8214C62.6295 37.8598 62.7062 38.9392 62.7062 40.0488C62.7062 41.1556 62.6295 42.2378 62.4761 43.2762C62.4404 43.5064 62.5254 43.7475 62.7007 43.9009L66.5993 47.4214C65.9966 49.5885 65.1418 51.6653 64.0322 53.6132L58.7856 53.3474C58.5555 53.3255 58.3308 53.4378 58.1883 53.6269C56.8897 55.3584 55.3554 56.9036 53.6158 58.1994C53.4267 58.3392 53.3199 58.5638 53.3363 58.7967L53.6021 64.0433C51.6514 65.1501 49.5774 66.0077 47.4103 66.6105L43.8898 62.7118C43.7555 62.5639 43.5665 62.4817 43.372 62.4817C43.3363 62.4817 43.3007 62.4817 43.2679 62.4899C41.2048 62.7995 38.8843 62.7995 36.8158 62.4899C36.5775 62.4543 36.3446 62.5392 36.1912 62.7146L32.6706 66.6132C30.5035 66.0105 28.4213 65.1475 26.4789 64.046L26.7446 58.7994C26.7583 58.5693 26.6542 58.3446 26.4652 58.2022C24.7254 56.9035 23.1884 55.3611 21.8926 53.6296C21.7529 53.4406 21.5282 53.3337 21.2953 53.3502L16.0487 53.6159C14.9419 51.6653 14.0789 49.583 13.4816 47.4241L17.3802 43.9036C17.5556 43.7502 17.6405 43.5118 17.6049 43.279C17.4514 42.2406 17.3747 41.1612 17.3747 40.0515C17.3747 38.9447 17.4514 37.8625 17.6049 36.8241C17.6405 36.594 17.5556 36.3529 17.3802 36.1995L13.4816 32.6789C14.0843 30.5118 14.9391 28.4351 16.0487 26.4872L21.2953 26.7529C21.5255 26.7612 21.7501 26.6625 21.8926 26.4735C23.1912 24.7419 24.7255 23.1968 26.4652 21.9009C26.6542 21.7612 26.7611 21.5365 26.7446 21.3036L26.4789 16.057C28.4295 14.9502 30.5035 14.0926 32.6706 13.4899L36.1912 17.3885C36.3446 17.5639 36.5775 17.6488 36.8158 17.6132C38.8788 17.3036 41.1994 17.3036 43.2679 17.6132C43.5062 17.6488 43.7391 17.5639 43.8925 17.3885L47.413 13.4899C49.5801 14.0926 51.6623 14.9556 53.6048 16.057L53.339 21.3036C53.3253 21.5338 53.4295 21.7584 53.6185 21.9009C55.3582 23.1996 56.8952 24.742 58.1911 26.4735C58.3308 26.6625 58.5555 26.7612 58.7883 26.7529L64.0349 26.4872C65.1418 28.4378 66.0048 30.5201 66.6021 32.6789L62.7007 36.1967Z"/>
</mask>
<path d="M68.0651 32.731C67.3911 30.1556 66.3746 27.6871 65.0295 25.4024C64.8952 25.1777 64.6432 25.0435 64.3911 25.0599L59.0897 25.3257C57.8349 23.7065 56.3829 22.2544 54.761 20.9969L55.0267 15.6955C55.0404 15.4352 54.9062 15.1914 54.6842 15.0571C52.3966 13.7092 49.9363 12.6927 47.3556 12.0215C47.1036 11.9585 46.8378 12.0352 46.6625 12.2325L43.1009 16.175C41.131 15.9147 38.9556 15.9147 36.9858 16.175L33.4241 12.2325C33.2488 12.0352 32.9748 11.9585 32.731 12.0215C30.1501 12.6955 27.6871 13.7202 25.4024 15.0571C25.1777 15.1914 25.0435 15.4352 25.0599 15.6955L25.3257 20.9969C23.7065 22.2517 22.2462 23.7037 20.9969 25.3257L15.6955 25.0599C15.4215 25.0462 15.1914 25.1805 15.0571 25.4024C13.7092 27.69 12.6873 30.1585 12.0215 32.731C11.9585 32.983 12.0352 33.2488 12.2325 33.4241L16.175 36.9858C16.0407 37.9748 15.9777 38.9995 15.9777 40.0433C15.9777 41.0872 16.0407 42.1118 16.175 43.1009L12.2325 46.6625C12.0352 46.8378 11.9585 47.1036 12.0215 47.3556C12.6955 49.931 13.712 52.3995 15.0571 54.6842C15.1914 54.9089 15.4352 55.0431 15.6955 55.0267L20.9969 54.761C22.2517 56.3801 23.7037 57.8322 25.3257 59.0897L25.0599 64.3911C25.0462 64.6514 25.1804 64.8952 25.4024 65.0295C27.69 66.3774 30.1503 67.3939 32.731 68.0651C32.983 68.1281 33.2488 68.0514 33.4241 67.8541L36.9858 63.9116C38.9556 64.1719 41.131 64.1719 43.1009 63.9116L46.6625 67.8541C46.7858 68.0158 46.9748 68.1007 47.1721 68.1007C47.2269 68.1007 47.2926 68.0925 47.3474 68.0788C49.9282 67.4048 52.3912 66.3801 54.676 65.0432C54.9007 64.9089 55.0349 64.6651 55.0185 64.4048L54.7527 59.1034C56.3719 57.8486 57.8322 56.3966 59.0815 54.7746L64.3829 55.0404C64.6569 55.0541 64.887 54.9199 65.0213 54.6979C66.3692 52.4103 67.3911 49.9418 68.0569 47.3693C68.1199 47.1173 68.0432 46.8515 67.8459 46.6762L63.9034 43.1146C64.0377 42.1255 64.1007 41.1008 64.1007 40.057C64.1007 39.0132 64.0377 37.9885 63.9034 36.9995L67.8459 33.4378C68.0514 33.2488 68.1281 32.983 68.0651 32.731ZM62.7007 36.1967C62.5254 36.3501 62.4404 36.5885 62.4761 36.8214C62.6295 37.8598 62.7062 38.9392 62.7062 40.0488C62.7062 41.1556 62.6295 42.2378 62.4761 43.2762C62.4404 43.5064 62.5254 43.7475 62.7007 43.9009L66.5993 47.4214C65.9966 49.5885 65.1418 51.6653 64.0322 53.6132L58.7856 53.3474C58.5555 53.3255 58.3308 53.4378 58.1883 53.6269C56.8897 55.3584 55.3554 56.9036 53.6158 58.1994C53.4267 58.3392 53.3199 58.5638 53.3363 58.7967L53.6021 64.0433C51.6514 65.1501 49.5774 66.0077 47.4103 66.6105L43.8898 62.7118C43.7555 62.5639 43.5665 62.4817 43.372 62.4817C43.3363 62.4817 43.3007 62.4817 43.2679 62.4899C41.2048 62.7995 38.8843 62.7995 36.8158 62.4899C36.5775 62.4543 36.3446 62.5392 36.1912 62.7146L32.6706 66.6132C30.5035 66.0105 28.4213 65.1475 26.4789 64.046L26.7446 58.7994C26.7583 58.5693 26.6542 58.3446 26.4652 58.2022C24.7254 56.9035 23.1884 55.3611 21.8926 53.6296C21.7529 53.4406 21.5282 53.3337 21.2953 53.3502L16.0487 53.6159C14.9419 51.6653 14.0789 49.583 13.4816 47.4241L17.3802 43.9036C17.5556 43.7502 17.6405 43.5118 17.6049 43.279C17.4514 42.2406 17.3747 41.1612 17.3747 40.0515C17.3747 38.9447 17.4514 37.8625 17.6049 36.8241C17.6405 36.594 17.5556 36.3529 17.3802 36.1995L13.4816 32.6789C14.0843 30.5118 14.9391 28.4351 16.0487 26.4872L21.2953 26.7529C21.5255 26.7612 21.7501 26.6625 21.8926 26.4735C23.1912 24.7419 24.7255 23.1968 26.4652 21.9009C26.6542 21.7612 26.7611 21.5365 26.7446 21.3036L26.4789 16.057C28.4295 14.9502 30.5035 14.0926 32.6706 13.4899L36.1912 17.3885C36.3446 17.5639 36.5775 17.6488 36.8158 17.6132C38.8788 17.3036 41.1994 17.3036 43.2679 17.6132C43.5062 17.6488 43.7391 17.5639 43.8925 17.3885L47.413 13.4899C49.5801 14.0926 51.6623 14.9556 53.6048 16.057L53.339 21.3036C53.3253 21.5338 53.4295 21.7584 53.6185 21.9009C55.3582 23.1996 56.8952 24.742 58.1911 26.4735C58.3308 26.6625 58.5555 26.7612 58.7883 26.7529L64.0349 26.4872C65.1418 28.4378 66.0048 30.5201 66.6021 32.6789L62.7007 36.1967Z" fill="white"/>
<path d="M68.0651 32.731C67.3911 30.1556 66.3746 27.6871 65.0295 25.4024C64.8952 25.1777 64.6432 25.0435 64.3911 25.0599L59.0897 25.3257C57.8349 23.7065 56.3829 22.2544 54.761 20.9969L55.0267 15.6955C55.0404 15.4352 54.9062 15.1914 54.6842 15.0571C52.3966 13.7092 49.9363 12.6927 47.3556 12.0215C47.1036 11.9585 46.8378 12.0352 46.6625 12.2325L43.1009 16.175C41.131 15.9147 38.9556 15.9147 36.9858 16.175L33.4241 12.2325C33.2488 12.0352 32.9748 11.9585 32.731 12.0215C30.1501 12.6955 27.6871 13.7202 25.4024 15.0571C25.1777 15.1914 25.0435 15.4352 25.0599 15.6955L25.3257 20.9969C23.7065 22.2517 22.2462 23.7037 20.9969 25.3257L15.6955 25.0599C15.4215 25.0462 15.1914 25.1805 15.0571 25.4024C13.7092 27.69 12.6873 30.1585 12.0215 32.731C11.9585 32.983 12.0352 33.2488 12.2325 33.4241L16.175 36.9858C16.0407 37.9748 15.9777 38.9995 15.9777 40.0433C15.9777 41.0872 16.0407 42.1118 16.175 43.1009L12.2325 46.6625C12.0352 46.8378 11.9585 47.1036 12.0215 47.3556C12.6955 49.931 13.712 52.3995 15.0571 54.6842C15.1914 54.9089 15.4352 55.0431 15.6955 55.0267L20.9969 54.761C22.2517 56.3801 23.7037 57.8322 25.3257 59.0897L25.0599 64.3911C25.0462 64.6514 25.1804 64.8952 25.4024 65.0295C27.69 66.3774 30.1503 67.3939 32.731 68.0651C32.983 68.1281 33.2488 68.0514 33.4241 67.8541L36.9858 63.9116C38.9556 64.1719 41.131 64.1719 43.1009 63.9116L46.6625 67.8541C46.7858 68.0158 46.9748 68.1007 47.1721 68.1007C47.2269 68.1007 47.2926 68.0925 47.3474 68.0788C49.9282 67.4048 52.3912 66.3801 54.676 65.0432C54.9007 64.9089 55.0349 64.6651 55.0185 64.4048L54.7527 59.1034C56.3719 57.8486 57.8322 56.3966 59.0815 54.7746L64.3829 55.0404C64.6569 55.0541 64.887 54.9199 65.0213 54.6979C66.3692 52.4103 67.3911 49.9418 68.0569 47.3693C68.1199 47.1173 68.0432 46.8515 67.8459 46.6762L63.9034 43.1146C64.0377 42.1255 64.1007 41.1008 64.1007 40.057C64.1007 39.0132 64.0377 37.9885 63.9034 36.9995L67.8459 33.4378C68.0514 33.2488 68.1281 32.983 68.0651 32.731ZM62.7007 36.1967C62.5254 36.3501 62.4404 36.5885 62.4761 36.8214C62.6295 37.8598 62.7062 38.9392 62.7062 40.0488C62.7062 41.1556 62.6295 42.2378 62.4761 43.2762C62.4404 43.5064 62.5254 43.7475 62.7007 43.9009L66.5993 47.4214C65.9966 49.5885 65.1418 51.6653 64.0322 53.6132L58.7856 53.3474C58.5555 53.3255 58.3308 53.4378 58.1883 53.6269C56.8897 55.3584 55.3554 56.9036 53.6158 58.1994C53.4267 58.3392 53.3199 58.5638 53.3363 58.7967L53.6021 64.0433C51.6514 65.1501 49.5774 66.0077 47.4103 66.6105L43.8898 62.7118C43.7555 62.5639 43.5665 62.4817 43.372 62.4817C43.3363 62.4817 43.3007 62.4817 43.2679 62.4899C41.2048 62.7995 38.8843 62.7995 36.8158 62.4899C36.5775 62.4543 36.3446 62.5392 36.1912 62.7146L32.6706 66.6132C30.5035 66.0105 28.4213 65.1475 26.4789 64.046L26.7446 58.7994C26.7583 58.5693 26.6542 58.3446 26.4652 58.2022C24.7254 56.9035 23.1884 55.3611 21.8926 53.6296C21.7529 53.4406 21.5282 53.3337 21.2953 53.3502L16.0487 53.6159C14.9419 51.6653 14.0789 49.583 13.4816 47.4241L17.3802 43.9036C17.5556 43.7502 17.6405 43.5118 17.6049 43.279C17.4514 42.2406 17.3747 41.1612 17.3747 40.0515C17.3747 38.9447 17.4514 37.8625 17.6049 36.8241C17.6405 36.594 17.5556 36.3529 17.3802 36.1995L13.4816 32.6789C14.0843 30.5118 14.9391 28.4351 16.0487 26.4872L21.2953 26.7529C21.5255 26.7612 21.7501 26.6625 21.8926 26.4735C23.1912 24.7419 24.7255 23.1968 26.4652 21.9009C26.6542 21.7612 26.7611 21.5365 26.7446 21.3036L26.4789 16.057C28.4295 14.9502 30.5035 14.0926 32.6706 13.4899L36.1912 17.3885C36.3446 17.5639 36.5775 17.6488 36.8158 17.6132C38.8788 17.3036 41.1994 17.3036 43.2679 17.6132C43.5062 17.6488 43.7391 17.5639 43.8925 17.3885L47.413 13.4899C49.5801 14.0926 51.6623 14.9556 53.6048 16.057L53.339 21.3036C53.3253 21.5338 53.4295 21.7584 53.6185 21.9009C55.3582 23.1996 56.8952 24.742 58.1911 26.4735C58.3308 26.6625 58.5555 26.7612 58.7883 26.7529L64.0349 26.4872C65.1418 28.4378 66.0048 30.5201 66.6021 32.6789L62.7007 36.1967Z" stroke="white" stroke-width="1.40274" mask="url(#path-2-outside-1_1447_5580)"/>
</svg>
