<svg width="80" height="80" viewBox="0 0 80 80" fill="none" xmlns="http://www.w3.org/2000/svg">
<path d="M46.2969 18.75C50.1979 18.75 53.7315 20.3318 56.2861 22.8887H56.2852C58.8419 25.4454 60.4248 28.9781 60.4248 32.877C60.4248 32.9158 60.4232 32.955 60.4229 32.9941C60.4832 32.993 60.5439 32.9912 60.6045 32.9912H60.8545V32.998C64.6562 33.0641 68.0929 34.6327 70.5928 37.1348C73.1494 39.6915 74.7314 43.2242 74.7314 47.123C74.7314 51.024 73.1495 54.5567 70.5928 57.1113C68.0361 59.668 64.5033 61.2499 60.6045 61.25H17.1221C13.7056 61.2499 10.6142 59.8639 8.37402 57.626C6.13594 55.3879 4.75006 52.2942 4.75 48.8799C4.75 45.4632 6.13601 42.3711 8.37402 40.1309C10.4444 38.0606 13.2473 36.7228 16.3594 36.5342C16.3588 36.4869 16.3574 36.4395 16.3574 36.3926C16.3575 32.9782 17.7435 29.8848 19.9814 27.6445V27.6436C22.2195 25.4057 25.3134 24.0206 28.7275 24.0205C30.0287 24.0205 31.2943 24.2274 32.4922 24.6104L33.0225 24.7939C33.4729 24.9608 33.9095 25.1544 34.332 25.3691C35.4441 23.6019 36.9336 22.0984 38.6904 20.9736C40.8897 19.5653 43.5003 18.7501 46.2969 18.75ZM46.2998 22.0322C44.147 22.0322 42.1437 22.6575 40.4609 23.7324C38.7181 24.8482 37.3166 26.4461 36.4443 28.3379L36.4424 28.3428C36.4011 28.4277 36.3532 28.5136 36.2939 28.5986L36.292 28.6006C35.7998 29.2907 34.8708 29.4863 34.1494 29.0752L34.0078 28.9844C33.3424 28.5085 32.6133 28.1224 31.8398 27.8398L31.5059 27.7246C30.6429 27.449 29.7129 27.3008 28.7305 27.3008C26.2221 27.3008 23.9478 28.3179 22.3037 29.9619C20.6595 31.6061 19.6396 33.8783 19.6396 36.3887C19.6397 36.6547 19.6507 36.9115 19.6719 37.1592L19.7129 37.5557C19.7288 37.683 19.7475 37.8056 19.7676 37.9238L19.8164 38.2158H19.7842C19.7836 38.2591 19.7842 38.3031 19.7803 38.3467V38.3477C19.6952 39.2466 18.8972 39.9081 17.9961 39.8232C17.8624 39.8105 17.7171 39.7996 17.5586 39.791V39.79C17.4684 39.786 17.3231 39.7852 17.1201 39.7852C14.6097 39.7852 12.3374 40.8023 10.6934 42.4463C9.04933 44.0904 8.03225 46.3626 8.03223 48.873C8.03223 51.3813 9.04938 53.6558 10.6934 55.2998C12.3374 56.9438 14.6097 57.9609 17.1201 57.9609H60.6025C63.5972 57.9608 66.3079 56.7477 68.2705 54.7852C70.2332 52.8224 71.4463 50.1112 71.4463 47.1162C71.4462 44.1234 70.2347 41.4145 68.2744 39.4521L68.2725 39.4541C66.3098 37.4916 63.5992 36.2784 60.6045 36.2783C60.3116 36.2783 60.0335 36.2894 59.7734 36.3086L59.7725 36.3076L59.7461 36.3105C59.4675 36.332 59.2175 36.3597 58.9941 36.3916L58.9932 36.3906C58.8004 36.4348 58.5969 36.4453 58.3936 36.4131V36.4121C57.4987 36.277 56.8822 35.4413 57.0186 34.5459C57.0613 34.2636 57.0929 33.9857 57.1143 33.7148C57.1334 33.453 57.1445 33.1737 57.1445 32.877C57.1445 29.8821 55.9304 27.1717 53.9678 25.209C52.0051 23.2463 49.2946 22.0323 46.2998 22.0322Z" fill="white" stroke="white" stroke-width="0.5"/>
</svg>
