<svg width="80" height="80" viewBox="0 0 80 80" fill="none" xmlns="http://www.w3.org/2000/svg">
<g clip-path="url(#clip0_1447_5578)">
<mask id="path-1-outside-1_1447_5578" maskUnits="userSpaceOnUse" x="-1" y="17" width="77" height="46" fill="black">
<rect fill="white" x="-1" y="17" width="77" height="46"/>
<path d="M11.3292 40.7833C9.91383 42.4274 10.4141 43.2571 8.21171 41.6893L2.40075 37.6658C1.50702 37.0527 -0.466617 36.2108 0.100781 35.0486C0.619343 34.1243 1.19279 33.2306 1.81813 32.3764L10.3229 19.2293C10.5913 18.8144 10.8323 18.1708 11.3295 18C11.9243 18.1373 12.4734 18.4301 12.9188 18.8449L15.1059 20.3091C16.9788 21.5598 18.8915 22.7738 20.7399 24.0641C21.3073 24.4607 21.4903 24.6711 21.2097 25.3849C22.6037 27.3433 24.6322 26.2085 26.4167 25.6412C30.0131 24.5003 32.6974 25.2233 36.1474 24.4393C43.0413 22.8714 43.1877 25.2385 48.8948 26.5898C51.2741 27.1541 51.9451 26.3092 53.8669 25.1195C53.2782 23.7438 55.023 23.2222 56.054 22.606L61.8864 19.0187C62.53 18.6221 63.6037 17.7315 64.2108 18.6435C65.0314 19.8819 65.7574 21.2089 66.5352 22.4747L71.7544 31.0037C72.4652 32.175 74.5913 35.3047 74.9756 36.3723C74.6218 37.5131 73.0234 38.105 72.0808 38.6875C69.6741 40.1883 67.2033 41.5884 64.8118 43.1076C64.5403 42.6561 64.2353 42.226 63.9394 41.7928C61.9139 43.0954 59.8305 44.3033 57.8599 45.6882L57.9331 45.8346V45.8407C58.5127 46.8504 58.6378 48.0583 58.2717 49.1656C57.7715 50.4467 56.6123 51.3558 55.2488 51.5388C55.4471 54.3848 53.5619 56.5353 50.5848 55.7728C49.8954 58.6614 47.5466 59.6162 44.9415 58.4419L44.9385 58.4388C44.7677 59.9274 43.6817 61.1445 42.2236 61.4861C40.433 61.8582 39.2373 60.8974 37.828 59.9762C36.6842 62.0351 34.4208 62.7947 32.7034 60.9614C30.5377 63.0876 27.0816 61.6752 26.4929 58.8902L26.1207 58.8963H26.1238C25.1141 58.9299 24.138 58.5486 23.4181 57.8378C22.7013 57.1302 22.3108 56.1541 22.3353 55.1474C19.6754 55.0163 18.2752 53.4544 18.3667 50.8067C15.8898 49.0955 13.8461 47.2226 15.6763 44.0379V44.0349C14.1512 43.0588 12.6988 41.9699 11.3292 40.7833ZM11.8478 20.6049C11.378 21.1845 10.9814 21.8342 10.5697 22.4595L8.3734 25.8302C6.33269 28.9446 4.22794 32.0377 2.26961 35.2009C4.70077 36.8115 6.98552 38.4527 9.34648 40.1304C10.0267 38.8675 10.9083 37.6687 11.6922 36.4699L15.7279 30.2898H15.7309C16.7131 28.5999 17.7869 26.9619 18.943 25.3849C16.6979 23.6217 14.3277 22.0264 11.8478 20.608L11.8478 20.6049ZM63.0573 20.6049C61.7793 21.4407 56.8956 24.604 55.9713 24.848H55.9744C56.5174 26.0011 57.1549 27.1083 57.8839 28.1546L61.2637 33.7124C61.7548 34.5208 65.0614 40.1731 65.3604 40.411L65.4336 40.3836C67.6604 39.0292 70.3233 37.3515 72.6172 36.1466C71.7356 34.5207 70.6467 32.9742 69.6706 31.4002L65.2292 24.0945C64.915 23.5882 63.2526 20.7391 63.0604 20.608L63.0573 20.6049ZM39.5055 25.879C38.1115 26.0468 36.7327 26.3122 35.3753 26.669C34.0881 26.9588 33.6579 26.8673 32.7764 27.9044L29.3996 31.9523C28.3198 33.3615 27.0905 34.6549 25.7362 35.8018C29.0855 36.9519 30.6838 35.4572 32.9747 33.7245C34.5121 32.5623 37.3154 31.3818 39.2401 32.0224C40.8507 32.5562 42.7724 34.3468 44.142 35.3564L48.5163 38.5746V38.5776C49.3368 39.0931 50.0994 39.7002 50.7857 40.3865C51.9876 40.8929 55.1874 43.4155 56.3679 44.3185C58.4604 42.8391 60.678 41.506 62.8408 40.1364C60.0955 35.7438 57.521 31.2443 54.7663 26.8611C47.8176 31.8302 44.8164 25.2506 39.5055 25.879ZM30.2816 26.8582C26.2276 27.5018 23.6531 29.7408 20.0815 27.2059C17.4643 31.1683 14.9356 35.1945 12.2817 39.1325C13.8435 40.2764 15.4663 41.3746 16.9732 42.5917C18.8949 41.6216 21.2406 42.2409 22.4334 44.0345C23.5132 43.3695 24.8462 43.2536 26.0267 43.7203C27.2102 44.1871 28.1009 45.1815 28.4395 46.4047C31.1605 46.3894 33.2286 48.3081 32.8443 51.1236H32.8412C33.9516 51.3066 34.9216 51.9686 35.492 52.9355C36.0654 53.9025 36.1783 55.0708 35.8031 56.1292C36.8128 56.8644 40.5007 59.8049 41.6537 59.622C42.2485 59.5427 42.7518 59.143 42.9684 58.5848C43.185 58.0266 43.0782 57.3922 42.6939 56.9346C41.6507 55.806 38.82 54.4882 38.1428 53.6401V53.6371C37.9323 53.3778 37.8713 53.024 37.9842 52.7067C38.094 52.3895 38.3624 52.1546 38.6918 52.0844C39.6039 51.9197 44.0239 55.3636 44.9787 56.0011C45.6193 56.4282 46.2568 57.1511 47.0865 57.0535C48.0016 56.904 48.6635 56.0926 48.6239 55.1653C48.4714 54.1953 43.4993 51.3157 42.514 50.6569C40.9735 49.5862 42.1144 48.2044 43.1393 48.6437L43.1363 48.6467C43.7281 48.9701 44.2924 49.3513 44.814 49.7784C46.6686 51.0443 48.8404 52.6 50.75 53.7195V53.7225C51.5401 54.1801 52.5498 53.9422 53.053 53.1826C53.5594 52.4231 53.3886 51.4012 52.6626 50.8491C51.2564 49.751 49.417 48.5307 47.9375 47.5333L47.9345 47.5364C47.1506 47.0727 46.4002 46.5511 45.6925 45.9746C45.3203 45.6482 45.2441 45.0991 45.5125 44.6812C45.7809 44.2664 46.3117 44.1108 46.7632 44.3152C48.8191 45.3828 53.0012 49.2049 54.5963 49.5253C55.0905 49.6076 55.5968 49.4643 55.9751 49.1348C56.3533 48.8023 56.5638 48.3203 56.5486 47.8201C56.4632 46.4322 54.7794 45.5872 53.7911 44.8521C51.7473 43.3299 49.6456 41.884 47.5927 40.3711L41.4492 35.8718C40.5128 35.1976 38.9998 33.6572 37.7613 33.7792C35.1837 34.0324 34.1344 35.7314 32.3683 36.8113C29.8517 38.3456 26.2065 38.794 23.7784 36.8357C22.5583 35.8504 23.7784 35.0207 24.5166 34.3191L24.5197 34.316C26.8745 31.9733 29.0769 29.4812 31.1176 26.8578C30.837 26.8548 30.5592 26.846 30.2816 26.8582ZM18.943 44.1784C18.3482 44.215 17.796 44.4987 17.4239 44.9624C17.0487 45.426 16.887 46.0239 16.9755 46.6126C17.1616 47.6589 18.4153 48.3087 19.2175 48.876C19.547 48.8302 20.7275 46.7072 20.8769 46.3198C21.3284 45.1576 19.9924 44.1723 18.943 44.1784ZM24.5496 45.3681C23.9395 45.4535 23.4088 45.8317 23.1281 46.3838L21.3955 49.1994C20.9837 49.7728 20.6298 50.389 20.3461 51.0357C19.9129 52.2925 21.2094 53.2137 22.3319 53.1832C23.549 52.8537 24.9339 49.9254 25.6294 48.7967C26.0534 48.1074 26.6452 47.5308 26.4316 46.6645H26.4286C26.1479 45.8714 25.3915 45.3498 24.5496 45.3681ZM28.9634 48.4123C27.6244 48.6472 26.3859 51.3315 25.6965 52.4571H25.6934C25.1688 53.1953 24.7112 53.9792 24.3238 54.7998C23.8724 55.9559 25.0773 56.9473 26.1479 56.8985C27.4932 56.6178 28.9054 53.601 29.6619 52.4205C30.1225 51.7067 31.0529 50.8404 30.8577 49.9222C30.6106 49.0681 29.8511 48.4611 28.9634 48.4123ZM31.9925 53.1831C30.9767 53.4607 29.2806 56.6239 28.7011 57.6214V57.6245C28.4083 58.1949 28.4754 58.8812 28.8689 59.3876C29.2624 59.8939 29.9121 60.1257 30.5374 59.9824C31.6783 59.6224 34.3565 55.474 34.0148 54.4185H34.0179C33.9203 53.9792 33.6519 53.601 33.2675 53.3661C32.8862 53.1343 32.4256 53.0672 31.9925 53.1831ZM34.7195 57.9417C34.4572 58.3871 34.1521 58.8263 33.9111 59.2808C34.3107 59.8482 34.6401 60.1318 35.3387 59.9793V59.9824C35.7169 59.6926 36.022 59.3205 36.2324 58.8934C35.7352 58.567 35.232 58.2468 34.7195 57.9417Z"/>
</mask>
<path d="M11.3292 40.7833C9.91383 42.4274 10.4141 43.2571 8.21171 41.6893L2.40075 37.6658C1.50702 37.0527 -0.466617 36.2108 0.100781 35.0486C0.619343 34.1243 1.19279 33.2306 1.81813 32.3764L10.3229 19.2293C10.5913 18.8144 10.8323 18.1708 11.3295 18C11.9243 18.1373 12.4734 18.4301 12.9188 18.8449L15.1059 20.3091C16.9788 21.5598 18.8915 22.7738 20.7399 24.0641C21.3073 24.4607 21.4903 24.6711 21.2097 25.3849C22.6037 27.3433 24.6322 26.2085 26.4167 25.6412C30.0131 24.5003 32.6974 25.2233 36.1474 24.4393C43.0413 22.8714 43.1877 25.2385 48.8948 26.5898C51.2741 27.1541 51.9451 26.3092 53.8669 25.1195C53.2782 23.7438 55.023 23.2222 56.054 22.606L61.8864 19.0187C62.53 18.6221 63.6037 17.7315 64.2108 18.6435C65.0314 19.8819 65.7574 21.2089 66.5352 22.4747L71.7544 31.0037C72.4652 32.175 74.5913 35.3047 74.9756 36.3723C74.6218 37.5131 73.0234 38.105 72.0808 38.6875C69.6741 40.1883 67.2033 41.5884 64.8118 43.1076C64.5403 42.6561 64.2353 42.226 63.9394 41.7928C61.9139 43.0954 59.8305 44.3033 57.8599 45.6882L57.9331 45.8346V45.8407C58.5127 46.8504 58.6378 48.0583 58.2717 49.1656C57.7715 50.4467 56.6123 51.3558 55.2488 51.5388C55.4471 54.3848 53.5619 56.5353 50.5848 55.7728C49.8954 58.6614 47.5466 59.6162 44.9415 58.4419L44.9385 58.4388C44.7677 59.9274 43.6817 61.1445 42.2236 61.4861C40.433 61.8582 39.2373 60.8974 37.828 59.9762C36.6842 62.0351 34.4208 62.7947 32.7034 60.9614C30.5377 63.0876 27.0816 61.6752 26.4929 58.8902L26.1207 58.8963H26.1238C25.1141 58.9299 24.138 58.5486 23.4181 57.8378C22.7013 57.1302 22.3108 56.1541 22.3353 55.1474C19.6754 55.0163 18.2752 53.4544 18.3667 50.8067C15.8898 49.0955 13.8461 47.2226 15.6763 44.0379V44.0349C14.1512 43.0588 12.6988 41.9699 11.3292 40.7833ZM11.8478 20.6049C11.378 21.1845 10.9814 21.8342 10.5697 22.4595L8.3734 25.8302C6.33269 28.9446 4.22794 32.0377 2.26961 35.2009C4.70077 36.8115 6.98552 38.4527 9.34648 40.1304C10.0267 38.8675 10.9083 37.6687 11.6922 36.4699L15.7279 30.2898H15.7309C16.7131 28.5999 17.7869 26.9619 18.943 25.3849C16.6979 23.6217 14.3277 22.0264 11.8478 20.608L11.8478 20.6049ZM63.0573 20.6049C61.7793 21.4407 56.8956 24.604 55.9713 24.848H55.9744C56.5174 26.0011 57.1549 27.1083 57.8839 28.1546L61.2637 33.7124C61.7548 34.5208 65.0614 40.1731 65.3604 40.411L65.4336 40.3836C67.6604 39.0292 70.3233 37.3515 72.6172 36.1466C71.7356 34.5207 70.6467 32.9742 69.6706 31.4002L65.2292 24.0945C64.915 23.5882 63.2526 20.7391 63.0604 20.608L63.0573 20.6049ZM39.5055 25.879C38.1115 26.0468 36.7327 26.3122 35.3753 26.669C34.0881 26.9588 33.6579 26.8673 32.7764 27.9044L29.3996 31.9523C28.3198 33.3615 27.0905 34.6549 25.7362 35.8018C29.0855 36.9519 30.6838 35.4572 32.9747 33.7245C34.5121 32.5623 37.3154 31.3818 39.2401 32.0224C40.8507 32.5562 42.7724 34.3468 44.142 35.3564L48.5163 38.5746V38.5776C49.3368 39.0931 50.0994 39.7002 50.7857 40.3865C51.9876 40.8929 55.1874 43.4155 56.3679 44.3185C58.4604 42.8391 60.678 41.506 62.8408 40.1364C60.0955 35.7438 57.521 31.2443 54.7663 26.8611C47.8176 31.8302 44.8164 25.2506 39.5055 25.879ZM30.2816 26.8582C26.2276 27.5018 23.6531 29.7408 20.0815 27.2059C17.4643 31.1683 14.9356 35.1945 12.2817 39.1325C13.8435 40.2764 15.4663 41.3746 16.9732 42.5917C18.8949 41.6216 21.2406 42.2409 22.4334 44.0345C23.5132 43.3695 24.8462 43.2536 26.0267 43.7203C27.2102 44.1871 28.1009 45.1815 28.4395 46.4047C31.1605 46.3894 33.2286 48.3081 32.8443 51.1236H32.8412C33.9516 51.3066 34.9216 51.9686 35.492 52.9355C36.0654 53.9025 36.1783 55.0708 35.8031 56.1292C36.8128 56.8644 40.5007 59.8049 41.6537 59.622C42.2485 59.5427 42.7518 59.143 42.9684 58.5848C43.185 58.0266 43.0782 57.3922 42.6939 56.9346C41.6507 55.806 38.82 54.4882 38.1428 53.6401V53.6371C37.9323 53.3778 37.8713 53.024 37.9842 52.7067C38.094 52.3895 38.3624 52.1546 38.6918 52.0844C39.6039 51.9197 44.0239 55.3636 44.9787 56.0011C45.6193 56.4282 46.2568 57.1511 47.0865 57.0535C48.0016 56.904 48.6635 56.0926 48.6239 55.1653C48.4714 54.1953 43.4993 51.3157 42.514 50.6569C40.9735 49.5862 42.1144 48.2044 43.1393 48.6437L43.1363 48.6467C43.7281 48.9701 44.2924 49.3513 44.814 49.7784C46.6686 51.0443 48.8404 52.6 50.75 53.7195V53.7225C51.5401 54.1801 52.5498 53.9422 53.053 53.1826C53.5594 52.4231 53.3886 51.4012 52.6626 50.8491C51.2564 49.751 49.417 48.5307 47.9375 47.5333L47.9345 47.5364C47.1506 47.0727 46.4002 46.5511 45.6925 45.9746C45.3203 45.6482 45.2441 45.0991 45.5125 44.6812C45.7809 44.2664 46.3117 44.1108 46.7632 44.3152C48.8191 45.3828 53.0012 49.2049 54.5963 49.5253C55.0905 49.6076 55.5968 49.4643 55.9751 49.1348C56.3533 48.8023 56.5638 48.3203 56.5486 47.8201C56.4632 46.4322 54.7794 45.5872 53.7911 44.8521C51.7473 43.3299 49.6456 41.884 47.5927 40.3711L41.4492 35.8718C40.5128 35.1976 38.9998 33.6572 37.7613 33.7792C35.1837 34.0324 34.1344 35.7314 32.3683 36.8113C29.8517 38.3456 26.2065 38.794 23.7784 36.8357C22.5583 35.8504 23.7784 35.0207 24.5166 34.3191L24.5197 34.316C26.8745 31.9733 29.0769 29.4812 31.1176 26.8578C30.837 26.8548 30.5592 26.846 30.2816 26.8582ZM18.943 44.1784C18.3482 44.215 17.796 44.4987 17.4239 44.9624C17.0487 45.426 16.887 46.0239 16.9755 46.6126C17.1616 47.6589 18.4153 48.3087 19.2175 48.876C19.547 48.8302 20.7275 46.7072 20.8769 46.3198C21.3284 45.1576 19.9924 44.1723 18.943 44.1784ZM24.5496 45.3681C23.9395 45.4535 23.4088 45.8317 23.1281 46.3838L21.3955 49.1994C20.9837 49.7728 20.6298 50.389 20.3461 51.0357C19.9129 52.2925 21.2094 53.2137 22.3319 53.1832C23.549 52.8537 24.9339 49.9254 25.6294 48.7967C26.0534 48.1074 26.6452 47.5308 26.4316 46.6645H26.4286C26.1479 45.8714 25.3915 45.3498 24.5496 45.3681ZM28.9634 48.4123C27.6244 48.6472 26.3859 51.3315 25.6965 52.4571H25.6934C25.1688 53.1953 24.7112 53.9792 24.3238 54.7998C23.8724 55.9559 25.0773 56.9473 26.1479 56.8985C27.4932 56.6178 28.9054 53.601 29.6619 52.4205C30.1225 51.7067 31.0529 50.8404 30.8577 49.9222C30.6106 49.0681 29.8511 48.4611 28.9634 48.4123ZM31.9925 53.1831C30.9767 53.4607 29.2806 56.6239 28.7011 57.6214V57.6245C28.4083 58.1949 28.4754 58.8812 28.8689 59.3876C29.2624 59.8939 29.9121 60.1257 30.5374 59.9824C31.6783 59.6224 34.3565 55.474 34.0148 54.4185H34.0179C33.9203 53.9792 33.6519 53.601 33.2675 53.3661C32.8862 53.1343 32.4256 53.0672 31.9925 53.1831ZM34.7195 57.9417C34.4572 58.3871 34.1521 58.8263 33.9111 59.2808C34.3107 59.8482 34.6401 60.1318 35.3387 59.9793V59.9824C35.7169 59.6926 36.022 59.3205 36.2324 58.8934C35.7352 58.567 35.232 58.2468 34.7195 57.9417Z" fill="white"/>
<path d="M11.3292 40.7833C9.91383 42.4274 10.4141 43.2571 8.21171 41.6893L2.40075 37.6658C1.50702 37.0527 -0.466617 36.2108 0.100781 35.0486C0.619343 34.1243 1.19279 33.2306 1.81813 32.3764L10.3229 19.2293C10.5913 18.8144 10.8323 18.1708 11.3295 18C11.9243 18.1373 12.4734 18.4301 12.9188 18.8449L15.1059 20.3091C16.9788 21.5598 18.8915 22.7738 20.7399 24.0641C21.3073 24.4607 21.4903 24.6711 21.2097 25.3849C22.6037 27.3433 24.6322 26.2085 26.4167 25.6412C30.0131 24.5003 32.6974 25.2233 36.1474 24.4393C43.0413 22.8714 43.1877 25.2385 48.8948 26.5898C51.2741 27.1541 51.9451 26.3092 53.8669 25.1195C53.2782 23.7438 55.023 23.2222 56.054 22.606L61.8864 19.0187C62.53 18.6221 63.6037 17.7315 64.2108 18.6435C65.0314 19.8819 65.7574 21.2089 66.5352 22.4747L71.7544 31.0037C72.4652 32.175 74.5913 35.3047 74.9756 36.3723C74.6218 37.5131 73.0234 38.105 72.0808 38.6875C69.6741 40.1883 67.2033 41.5884 64.8118 43.1076C64.5403 42.6561 64.2353 42.226 63.9394 41.7928C61.9139 43.0954 59.8305 44.3033 57.8599 45.6882L57.9331 45.8346V45.8407C58.5127 46.8504 58.6378 48.0583 58.2717 49.1656C57.7715 50.4467 56.6123 51.3558 55.2488 51.5388C55.4471 54.3848 53.5619 56.5353 50.5848 55.7728C49.8954 58.6614 47.5466 59.6162 44.9415 58.4419L44.9385 58.4388C44.7677 59.9274 43.6817 61.1445 42.2236 61.4861C40.433 61.8582 39.2373 60.8974 37.828 59.9762C36.6842 62.0351 34.4208 62.7947 32.7034 60.9614C30.5377 63.0876 27.0816 61.6752 26.4929 58.8902L26.1207 58.8963H26.1238C25.1141 58.9299 24.138 58.5486 23.4181 57.8378C22.7013 57.1302 22.3108 56.1541 22.3353 55.1474C19.6754 55.0163 18.2752 53.4544 18.3667 50.8067C15.8898 49.0955 13.8461 47.2226 15.6763 44.0379V44.0349C14.1512 43.0588 12.6988 41.9699 11.3292 40.7833ZM11.8478 20.6049C11.378 21.1845 10.9814 21.8342 10.5697 22.4595L8.3734 25.8302C6.33269 28.9446 4.22794 32.0377 2.26961 35.2009C4.70077 36.8115 6.98552 38.4527 9.34648 40.1304C10.0267 38.8675 10.9083 37.6687 11.6922 36.4699L15.7279 30.2898H15.7309C16.7131 28.5999 17.7869 26.9619 18.943 25.3849C16.6979 23.6217 14.3277 22.0264 11.8478 20.608L11.8478 20.6049ZM63.0573 20.6049C61.7793 21.4407 56.8956 24.604 55.9713 24.848H55.9744C56.5174 26.0011 57.1549 27.1083 57.8839 28.1546L61.2637 33.7124C61.7548 34.5208 65.0614 40.1731 65.3604 40.411L65.4336 40.3836C67.6604 39.0292 70.3233 37.3515 72.6172 36.1466C71.7356 34.5207 70.6467 32.9742 69.6706 31.4002L65.2292 24.0945C64.915 23.5882 63.2526 20.7391 63.0604 20.608L63.0573 20.6049ZM39.5055 25.879C38.1115 26.0468 36.7327 26.3122 35.3753 26.669C34.0881 26.9588 33.6579 26.8673 32.7764 27.9044L29.3996 31.9523C28.3198 33.3615 27.0905 34.6549 25.7362 35.8018C29.0855 36.9519 30.6838 35.4572 32.9747 33.7245C34.5121 32.5623 37.3154 31.3818 39.2401 32.0224C40.8507 32.5562 42.7724 34.3468 44.142 35.3564L48.5163 38.5746V38.5776C49.3368 39.0931 50.0994 39.7002 50.7857 40.3865C51.9876 40.8929 55.1874 43.4155 56.3679 44.3185C58.4604 42.8391 60.678 41.506 62.8408 40.1364C60.0955 35.7438 57.521 31.2443 54.7663 26.8611C47.8176 31.8302 44.8164 25.2506 39.5055 25.879ZM30.2816 26.8582C26.2276 27.5018 23.6531 29.7408 20.0815 27.2059C17.4643 31.1683 14.9356 35.1945 12.2817 39.1325C13.8435 40.2764 15.4663 41.3746 16.9732 42.5917C18.8949 41.6216 21.2406 42.2409 22.4334 44.0345C23.5132 43.3695 24.8462 43.2536 26.0267 43.7203C27.2102 44.1871 28.1009 45.1815 28.4395 46.4047C31.1605 46.3894 33.2286 48.3081 32.8443 51.1236H32.8412C33.9516 51.3066 34.9216 51.9686 35.492 52.9355C36.0654 53.9025 36.1783 55.0708 35.8031 56.1292C36.8128 56.8644 40.5007 59.8049 41.6537 59.622C42.2485 59.5427 42.7518 59.143 42.9684 58.5848C43.185 58.0266 43.0782 57.3922 42.6939 56.9346C41.6507 55.806 38.82 54.4882 38.1428 53.6401V53.6371C37.9323 53.3778 37.8713 53.024 37.9842 52.7067C38.094 52.3895 38.3624 52.1546 38.6918 52.0844C39.6039 51.9197 44.0239 55.3636 44.9787 56.0011C45.6193 56.4282 46.2568 57.1511 47.0865 57.0535C48.0016 56.904 48.6635 56.0926 48.6239 55.1653C48.4714 54.1953 43.4993 51.3157 42.514 50.6569C40.9735 49.5862 42.1144 48.2044 43.1393 48.6437L43.1363 48.6467C43.7281 48.9701 44.2924 49.3513 44.814 49.7784C46.6686 51.0443 48.8404 52.6 50.75 53.7195V53.7225C51.5401 54.1801 52.5498 53.9422 53.053 53.1826C53.5594 52.4231 53.3886 51.4012 52.6626 50.8491C51.2564 49.751 49.417 48.5307 47.9375 47.5333L47.9345 47.5364C47.1506 47.0727 46.4002 46.5511 45.6925 45.9746C45.3203 45.6482 45.2441 45.0991 45.5125 44.6812C45.7809 44.2664 46.3117 44.1108 46.7632 44.3152C48.8191 45.3828 53.0012 49.2049 54.5963 49.5253C55.0905 49.6076 55.5968 49.4643 55.9751 49.1348C56.3533 48.8023 56.5638 48.3203 56.5486 47.8201C56.4632 46.4322 54.7794 45.5872 53.7911 44.8521C51.7473 43.3299 49.6456 41.884 47.5927 40.3711L41.4492 35.8718C40.5128 35.1976 38.9998 33.6572 37.7613 33.7792C35.1837 34.0324 34.1344 35.7314 32.3683 36.8113C29.8517 38.3456 26.2065 38.794 23.7784 36.8357C22.5583 35.8504 23.7784 35.0207 24.5166 34.3191L24.5197 34.316C26.8745 31.9733 29.0769 29.4812 31.1176 26.8578C30.837 26.8548 30.5592 26.846 30.2816 26.8582ZM18.943 44.1784C18.3482 44.215 17.796 44.4987 17.4239 44.9624C17.0487 45.426 16.887 46.0239 16.9755 46.6126C17.1616 47.6589 18.4153 48.3087 19.2175 48.876C19.547 48.8302 20.7275 46.7072 20.8769 46.3198C21.3284 45.1576 19.9924 44.1723 18.943 44.1784ZM24.5496 45.3681C23.9395 45.4535 23.4088 45.8317 23.1281 46.3838L21.3955 49.1994C20.9837 49.7728 20.6298 50.389 20.3461 51.0357C19.9129 52.2925 21.2094 53.2137 22.3319 53.1832C23.549 52.8537 24.9339 49.9254 25.6294 48.7967C26.0534 48.1074 26.6452 47.5308 26.4316 46.6645H26.4286C26.1479 45.8714 25.3915 45.3498 24.5496 45.3681ZM28.9634 48.4123C27.6244 48.6472 26.3859 51.3315 25.6965 52.4571H25.6934C25.1688 53.1953 24.7112 53.9792 24.3238 54.7998C23.8724 55.9559 25.0773 56.9473 26.1479 56.8985C27.4932 56.6178 28.9054 53.601 29.6619 52.4205C30.1225 51.7067 31.0529 50.8404 30.8577 49.9222C30.6106 49.0681 29.8511 48.4611 28.9634 48.4123ZM31.9925 53.1831C30.9767 53.4607 29.2806 56.6239 28.7011 57.6214V57.6245C28.4083 58.1949 28.4754 58.8812 28.8689 59.3876C29.2624 59.8939 29.9121 60.1257 30.5374 59.9824C31.6783 59.6224 34.3565 55.474 34.0148 54.4185H34.0179C33.9203 53.9792 33.6519 53.601 33.2675 53.3661C32.8862 53.1343 32.4256 53.0672 31.9925 53.1831ZM34.7195 57.9417C34.4572 58.3871 34.1521 58.8263 33.9111 59.2808C34.3107 59.8482 34.6401 60.1318 35.3387 59.9793V59.9824C35.7169 59.6926 36.022 59.3205 36.2324 58.8934C35.7352 58.567 35.232 58.2468 34.7195 57.9417Z" stroke="white" stroke-width="0.814952" mask="url(#path-1-outside-1_1447_5578)"/>
</g>
<defs>
<clipPath id="clip0_1447_5578">
<rect width="80" height="80" fill="white"/>
</clipPath>
</defs>
</svg>
