<svg width="80" height="80" viewBox="0 0 80 80" fill="none" xmlns="http://www.w3.org/2000/svg">
<mask id="path-1-outside-1_1447_5586" maskUnits="userSpaceOnUse" x="17" y="9" width="45" height="63" fill="black">
<rect fill="white" x="17" y="9" width="45" height="63"/>
<path fill-rule="evenodd" clip-rule="evenodd" d="M26.7885 17.3451H52.2111V15.3403H35.9931C35.6823 15.3403 35.4004 15.1637 35.266 14.8845L33.3797 11.6177H26.7883V17.3503L26.7885 17.3451ZM26.8649 65.535H22.792V69.0836H26.8649L26.8676 65.535H26.8649ZM56.2052 65.535H52.1323V69.0836H56.2052L56.2079 65.535H56.2052ZM53.8263 16.2148H60.1912C60.6365 16.2148 61 16.5783 61 17.0236V64.7258C61 65.1737 60.6365 65.5372 60.1912 65.5372H57.8229V69.8894C57.8229 70.3346 57.4593 70.6981 57.0141 70.6981H51.3262C50.8784 70.6981 50.5175 70.3346 50.5175 69.8894V65.5346H28.4826V69.8894C28.4826 70.3346 28.119 70.6981 27.6738 70.6981H21.9859C21.5381 70.6981 21.1745 70.3346 21.1745 69.8894V65.5346H18.8088C18.3635 65.5346 18 65.1737 18 64.7258V17.0209C18 16.5756 18.3636 16.2121 18.8088 16.2121H25.1737V10.8088C25.1737 10.3635 25.5372 10 25.9851 10H33.8435C34.1544 10 34.4363 10.1765 34.5706 10.4558L36.4596 13.7252H53.0174C53.4653 13.7252 53.8262 14.0861 53.8262 14.534V16.2174L53.8263 16.2148ZM26.7885 20.7593H52.2111V18.9599H26.7885V20.7593ZM22.7499 20.7593H25.1736V17.8297H19.6175V63.9201H59.3824V17.8297H53.8263V20.7593H56.25C56.6953 20.7593 57.0588 21.1228 57.0588 21.5681V60.1817C57.0588 60.6296 56.6952 60.9931 56.25 60.9931H22.7499C22.3046 60.9931 21.9411 60.6296 21.9411 60.1817V21.5681C21.9411 21.1202 22.3046 20.7566 22.7499 20.7566V20.7593ZM35.825 34.788C35.825 35.7128 35.7196 36.5031 36.3519 37.2091C36.6443 37.549 37.0685 37.7492 37.5163 37.7571H41.4839C42.4929 37.6649 43.2437 36.785 43.1752 35.7759V34.7907L35.825 34.788ZM44.7902 34.788V35.7759C44.8586 37.678 43.3834 39.2798 41.4839 39.372H37.5164C35.6169 39.2798 34.1416 37.678 34.2101 35.7759V34.7907H23.5589V46.9594H55.4411V34.7907L44.7902 34.788ZM35.825 48.5767C35.825 49.5014 35.7196 50.2944 36.3519 50.9978C36.6443 51.3403 37.0685 51.5405 37.5163 51.5458H41.4839C42.4929 51.4562 43.2437 50.5763 43.1752 49.5646V48.5767H35.825ZM44.7902 48.5767V49.5646C44.8586 51.4667 43.3834 53.0711 41.4839 53.1633H37.5164C35.6169 53.0711 34.1416 51.4693 34.2101 49.5672V48.5767H23.5589V59.3756H55.4411V48.5767L44.7902 48.5767ZM35.825 22.3739C35.825 23.2986 35.7196 24.0916 36.3519 24.7949C36.6443 25.1374 37.0685 25.335 37.5163 25.3429H41.4839C42.4929 25.2533 43.2437 24.3734 43.1752 23.3618V22.3739H35.825ZM44.7902 22.3739V23.3618C44.8586 25.2638 43.3834 26.8682 41.4839 26.9578H37.5164C35.6169 26.8682 34.1416 25.2638 34.2101 23.3618V22.3739H23.5589V33.1728H55.4411V22.3739H44.7902Z"/>
</mask>
<path fill-rule="evenodd" clip-rule="evenodd" d="M26.7885 17.3451H52.2111V15.3403H35.9931C35.6823 15.3403 35.4004 15.1637 35.266 14.8845L33.3797 11.6177H26.7883V17.3503L26.7885 17.3451ZM26.8649 65.535H22.792V69.0836H26.8649L26.8676 65.535H26.8649ZM56.2052 65.535H52.1323V69.0836H56.2052L56.2079 65.535H56.2052ZM53.8263 16.2148H60.1912C60.6365 16.2148 61 16.5783 61 17.0236V64.7258C61 65.1737 60.6365 65.5372 60.1912 65.5372H57.8229V69.8894C57.8229 70.3346 57.4593 70.6981 57.0141 70.6981H51.3262C50.8784 70.6981 50.5175 70.3346 50.5175 69.8894V65.5346H28.4826V69.8894C28.4826 70.3346 28.119 70.6981 27.6738 70.6981H21.9859C21.5381 70.6981 21.1745 70.3346 21.1745 69.8894V65.5346H18.8088C18.3635 65.5346 18 65.1737 18 64.7258V17.0209C18 16.5756 18.3636 16.2121 18.8088 16.2121H25.1737V10.8088C25.1737 10.3635 25.5372 10 25.9851 10H33.8435C34.1544 10 34.4363 10.1765 34.5706 10.4558L36.4596 13.7252H53.0174C53.4653 13.7252 53.8262 14.0861 53.8262 14.534V16.2174L53.8263 16.2148ZM26.7885 20.7593H52.2111V18.9599H26.7885V20.7593ZM22.7499 20.7593H25.1736V17.8297H19.6175V63.9201H59.3824V17.8297H53.8263V20.7593H56.25C56.6953 20.7593 57.0588 21.1228 57.0588 21.5681V60.1817C57.0588 60.6296 56.6952 60.9931 56.25 60.9931H22.7499C22.3046 60.9931 21.9411 60.6296 21.9411 60.1817V21.5681C21.9411 21.1202 22.3046 20.7566 22.7499 20.7566V20.7593ZM35.825 34.788C35.825 35.7128 35.7196 36.5031 36.3519 37.2091C36.6443 37.549 37.0685 37.7492 37.5163 37.7571H41.4839C42.4929 37.6649 43.2437 36.785 43.1752 35.7759V34.7907L35.825 34.788ZM44.7902 34.788V35.7759C44.8586 37.678 43.3834 39.2798 41.4839 39.372H37.5164C35.6169 39.2798 34.1416 37.678 34.2101 35.7759V34.7907H23.5589V46.9594H55.4411V34.7907L44.7902 34.788ZM35.825 48.5767C35.825 49.5014 35.7196 50.2944 36.3519 50.9978C36.6443 51.3403 37.0685 51.5405 37.5163 51.5458H41.4839C42.4929 51.4562 43.2437 50.5763 43.1752 49.5646V48.5767H35.825ZM44.7902 48.5767V49.5646C44.8586 51.4667 43.3834 53.0711 41.4839 53.1633H37.5164C35.6169 53.0711 34.1416 51.4693 34.2101 49.5672V48.5767H23.5589V59.3756H55.4411V48.5767L44.7902 48.5767ZM35.825 22.3739C35.825 23.2986 35.7196 24.0916 36.3519 24.7949C36.6443 25.1374 37.0685 25.335 37.5163 25.3429H41.4839C42.4929 25.2533 43.2437 24.3734 43.1752 23.3618V22.3739H35.825ZM44.7902 22.3739V23.3618C44.8586 25.2638 43.3834 26.8682 41.4839 26.9578H37.5164C35.6169 26.8682 34.1416 25.2638 34.2101 23.3618V22.3739H23.5589V33.1728H55.4411V22.3739H44.7902Z" fill="white"/>
<path fill-rule="evenodd" clip-rule="evenodd" d="M26.7885 17.3451H52.2111V15.3403H35.9931C35.6823 15.3403 35.4004 15.1637 35.266 14.8845L33.3797 11.6177H26.7883V17.3503L26.7885 17.3451ZM26.8649 65.535H22.792V69.0836H26.8649L26.8676 65.535H26.8649ZM56.2052 65.535H52.1323V69.0836H56.2052L56.2079 65.535H56.2052ZM53.8263 16.2148H60.1912C60.6365 16.2148 61 16.5783 61 17.0236V64.7258C61 65.1737 60.6365 65.5372 60.1912 65.5372H57.8229V69.8894C57.8229 70.3346 57.4593 70.6981 57.0141 70.6981H51.3262C50.8784 70.6981 50.5175 70.3346 50.5175 69.8894V65.5346H28.4826V69.8894C28.4826 70.3346 28.119 70.6981 27.6738 70.6981H21.9859C21.5381 70.6981 21.1745 70.3346 21.1745 69.8894V65.5346H18.8088C18.3635 65.5346 18 65.1737 18 64.7258V17.0209C18 16.5756 18.3636 16.2121 18.8088 16.2121H25.1737V10.8088C25.1737 10.3635 25.5372 10 25.9851 10H33.8435C34.1544 10 34.4363 10.1765 34.5706 10.4558L36.4596 13.7252H53.0174C53.4653 13.7252 53.8262 14.0861 53.8262 14.534V16.2174L53.8263 16.2148ZM26.7885 20.7593H52.2111V18.9599H26.7885V20.7593ZM22.7499 20.7593H25.1736V17.8297H19.6175V63.9201H59.3824V17.8297H53.8263V20.7593H56.25C56.6953 20.7593 57.0588 21.1228 57.0588 21.5681V60.1817C57.0588 60.6296 56.6952 60.9931 56.25 60.9931H22.7499C22.3046 60.9931 21.9411 60.6296 21.9411 60.1817V21.5681C21.9411 21.1202 22.3046 20.7566 22.7499 20.7566V20.7593ZM35.825 34.788C35.825 35.7128 35.7196 36.5031 36.3519 37.2091C36.6443 37.549 37.0685 37.7492 37.5163 37.7571H41.4839C42.4929 37.6649 43.2437 36.785 43.1752 35.7759V34.7907L35.825 34.788ZM44.7902 34.788V35.7759C44.8586 37.678 43.3834 39.2798 41.4839 39.372H37.5164C35.6169 39.2798 34.1416 37.678 34.2101 35.7759V34.7907H23.5589V46.9594H55.4411V34.7907L44.7902 34.788ZM35.825 48.5767C35.825 49.5014 35.7196 50.2944 36.3519 50.9978C36.6443 51.3403 37.0685 51.5405 37.5163 51.5458H41.4839C42.4929 51.4562 43.2437 50.5763 43.1752 49.5646V48.5767H35.825ZM44.7902 48.5767V49.5646C44.8586 51.4667 43.3834 53.0711 41.4839 53.1633H37.5164C35.6169 53.0711 34.1416 51.4693 34.2101 49.5672V48.5767H23.5589V59.3756H55.4411V48.5767L44.7902 48.5767ZM35.825 22.3739C35.825 23.2986 35.7196 24.0916 36.3519 24.7949C36.6443 25.1374 37.0685 25.335 37.5163 25.3429H41.4839C42.4929 25.2533 43.2437 24.3734 43.1752 23.3618V22.3739H35.825ZM44.7902 22.3739V23.3618C44.8586 25.2638 43.3834 26.8682 41.4839 26.9578H37.5164C35.6169 26.8682 34.1416 25.2638 34.2101 23.3618V22.3739H23.5589V33.1728H55.4411V22.3739H44.7902Z" stroke="white" stroke-width="0.809313" mask="url(#path-1-outside-1_1447_5586)"/>
</svg>
