<svg width="80" height="80" viewBox="0 0 80 80" fill="none" xmlns="http://www.w3.org/2000/svg">
<path d="M14.3936 13.8096C16.8543 13.6168 19.4092 13.7373 21.8428 13.7373L35.3779 13.7432H54.7383C58.1507 13.7432 61.624 13.6487 65.0488 13.7617C65.6135 13.7808 66.2107 13.8085 66.7979 13.9658V13.9346L67.207 14.0938C68.3263 14.5307 69.2124 15.4162 69.6445 16.5391C69.8525 17.0743 69.9723 17.641 69.9951 18.2139L70.0361 19.1748C70.1098 21.4215 70.0378 23.7075 70.04 25.9229L70.0371 40.7676L70.0273 54.5371L70.0391 56.375C70.0599 58.2244 70.0902 60.1029 69.9795 61.9434L69.9785 61.9424C69.9604 62.5615 69.8123 63.171 69.5498 63.7295L69.5488 63.7305C68.8952 65.1006 67.8151 65.6481 66.5312 66.0742L66.502 66.084L66.4707 66.0879C64.2107 66.3449 61.7469 66.1471 59.5254 66.1445V66.1436L46.4688 66.1426L25.1348 66.1396C21.904 66.137 18.5691 66.2958 15.3174 66.1494C14.5557 66.1437 13.8055 65.9507 13.1357 65.5869V65.5879C12.0392 65.0084 11.2592 63.9739 11.002 62.7617V62.7607C10.7453 61.7058 10.6927 60.3921 10.7012 59.0908C10.7055 58.4357 10.7254 57.7768 10.7441 57.1494C10.7629 56.5203 10.7803 55.9239 10.7803 55.3867L10.7881 42.8223L10.7773 26.8701C10.7721 24.0318 10.6355 21.076 10.7988 18.2158C10.8473 17.3684 10.9836 16.5666 11.4717 15.793C12.1529 14.7132 13.152 14.1015 14.3477 13.8164L14.3701 13.8115L14.3936 13.8096ZM30.042 27.0703C24.542 27.0703 19.0449 27.0063 13.5547 27.0762L13.5498 49.5752L13.5449 57.0293C13.5449 58.2445 13.4945 59.4486 13.5498 60.6328L13.5811 61.1396L13.6152 61.6045C13.6295 61.762 13.6489 61.9204 13.6797 62.0742C13.7415 62.383 13.8414 62.6221 13.9961 62.7715V62.7725C14.3993 63.1623 14.916 63.2992 15.5322 63.3418H15.5332C18.0627 63.5193 20.701 63.3545 23.2803 63.3545L39.5498 63.3467L56.8008 63.3486C59.6415 63.3486 62.5206 63.5067 65.3105 63.3291L65.5264 63.3066C65.7252 63.278 65.8762 63.23 66.0146 63.1621C66.1996 63.0714 66.3743 62.9386 66.625 62.7393C66.9574 62.2447 67.2112 61.8646 67.2754 61.3408L67.3223 60.8564C67.4078 59.7172 67.3359 58.517 67.3359 57.3418L67.3262 50.2529V27.0518L30.042 27.0703ZM65.2559 16.6406C62.8143 16.4659 60.308 16.6099 57.8164 16.6152H57.8154L43.8262 16.6201L24.8311 16.6172C21.6133 16.6172 18.3731 16.5001 15.1836 16.6396C14.5934 16.771 14.1669 16.926 13.8975 17.3682C13.735 17.6344 13.6135 18.1017 13.5371 18.7227C13.4622 19.3321 13.434 20.0497 13.4326 20.7871C13.4302 22.1114 13.5105 23.4629 13.5488 24.3428L65.9014 24.3447H65.9053C66.3791 24.3469 66.8519 24.3256 67.3223 24.2793C67.3304 23.7955 67.3465 23.2973 67.3623 22.7959C67.3811 22.1996 67.3979 21.597 67.3965 20.998C67.3936 19.823 67.3183 18.6771 67.0547 17.6436C66.7523 17.3012 66.5305 17.077 66.2822 16.9238C66.0306 16.7686 65.7315 16.675 65.2559 16.6406Z" fill="white" stroke="white" stroke-width="0.6"/>
<path d="M49.9551 34.7344L49.999 34.9131L49.8828 34.7822C49.7182 34.9291 49.4883 35.1141 49.3135 35.3223C49.1522 35.5144 49.0149 35.7497 48.9785 36.0449L48.9697 36.1758C48.9675 36.3052 49.0236 36.4325 49.0713 36.5244C49.1255 36.6289 49.2007 36.7466 49.29 36.8721C49.4694 37.124 49.7234 37.4336 50.0244 37.7783C50.6278 38.4692 51.4406 39.3224 52.2822 40.1748C53.8836 41.7968 55.6063 43.4325 56.2109 43.9727C55.4885 44.6852 53.8918 46.1766 52.3701 47.6729C51.5238 48.5051 50.7063 49.3355 50.0967 50.0195C49.7925 50.3609 49.535 50.6714 49.3506 50.9307C49.2585 51.0601 49.1799 51.1826 49.123 51.2939C49.0699 51.398 49.0199 51.5229 49.0146 51.6484L49.0117 51.707L49.0312 51.7617C49.1772 52.173 49.4298 52.7291 49.9502 52.9912C50.3644 53.2002 50.8056 53.0919 51.1182 52.9795L51.1768 52.959L51.2217 52.916C51.73 52.4403 53.7972 50.4987 55.75 48.5693C56.7259 47.6051 57.6761 46.6409 58.3896 45.8633C58.746 45.4749 59.0479 45.1292 59.2646 44.8506C59.3726 44.7118 59.4632 44.5842 59.5303 44.4736C59.5901 44.375 59.6567 44.2496 59.6709 44.126L59.6777 44.0654L59.6602 44.0068C59.5421 43.6076 59.3541 43.2319 59.1025 42.8994L58.9912 42.7598C58.5478 42.2169 56.7136 40.3255 54.9072 38.5391C53.9987 37.6406 53.0911 36.7628 52.3613 36.0879C51.9967 35.7507 51.6741 35.462 51.417 35.2461C51.2886 35.1383 51.1741 35.046 51.0771 34.9746C50.986 34.9075 50.8916 34.845 50.8096 34.8096L50.7959 34.8037L50.7822 34.7988L50.6064 34.752C50.4289 34.7126 50.2466 34.6978 50.0664 34.707L50.0771 34.9199L49.9551 34.7344ZM49.9551 34.7344L50.0801 35.0039H50.0811L49.9551 34.7344Z" fill="white" stroke="white" stroke-width="0.6"/>
<path d="M42.3926 31.6992C42.6513 31.6772 42.9059 31.6591 43.1543 31.7051C43.3502 31.7414 43.5334 31.8152 43.7168 31.9385L43.9014 32.0791L43.9287 32.1025L43.9502 32.1328C44.1014 32.3434 44.1867 32.5916 44.2012 32.8477L44.2031 32.957C44.1945 33.3532 44.0997 33.8882 43.9629 34.4766C43.8248 35.0703 43.6392 35.7382 43.4414 36.4072C43.2435 37.0767 43.0323 37.7516 42.8418 38.3584C42.6507 38.9671 42.4807 39.505 42.3652 39.9072V39.9082L39.5186 49.6582L39.5176 49.6602C38.9973 51.4013 38.5101 53.2497 37.8545 54.9766V54.9824L37.8359 55.0322C37.7188 55.3506 37.535 55.6386 37.2988 55.8809L37.2109 55.9717H37.084C36.7667 55.9716 36.4544 55.9129 36.1582 55.7979V55.7988C36.1545 55.7976 36.1512 55.7952 36.1475 55.7939C36.1459 55.7933 36.1441 55.7936 36.1426 55.793V55.792C35.7394 55.6533 35.4158 55.3433 35.2598 54.9434L35.2373 54.8867L35.2393 54.8242C35.2562 54.3166 35.407 53.5472 35.623 52.667C35.8411 51.779 36.1319 50.7534 36.4395 49.7227C37.0607 47.6402 37.7349 45.5845 38.0557 44.4844C39.1595 40.7111 40.1072 36.7456 41.4492 33.0225C41.5902 32.5967 41.7978 32.1932 42.0645 31.8311L42.1436 31.7227L42.2773 31.71L42.3906 31.6992H42.3926Z" fill="white" stroke="white" stroke-width="0.6"/>
<path d="M29.4219 34.8389C29.923 34.7814 30.4143 34.7945 30.8887 35.1748L30.9971 35.2559C31.2368 35.459 31.383 35.7557 31.3955 36.0723L31.3965 36.0918L31.3945 36.1113C31.3607 36.483 31.2166 36.8329 30.9824 37.1211L30.9834 37.1221C30.1216 38.3004 28.8917 39.3346 27.8926 40.3105H27.8916C26.6423 41.5302 25.4042 42.7893 24.1309 44.0029C25.6665 45.6643 27.3854 47.2068 29.0254 48.8037C29.1921 48.9659 29.3745 49.1337 29.5664 49.3096C29.7571 49.4844 29.9566 49.6669 30.1504 49.8545C30.5359 50.2277 30.9155 50.6349 31.1836 51.0703L31.2275 51.1426V51.1543C31.3975 51.4769 31.43 51.8557 31.3154 52.2031L31.3115 52.2129C31.0984 52.7924 30.5457 53.081 30.1719 53.29L30.0654 53.3486L29.9482 53.3174C29.5712 53.2164 29.2166 53.0294 28.9209 52.7666V52.7656C28.2739 52.2195 27.6844 51.6115 27.1172 50.9971C26.5441 50.3762 26.0005 49.7577 25.4248 49.1689L24.9736 48.7188C24.5196 48.2728 24.0556 47.8363 23.5898 47.3916C22.9714 46.801 22.3537 46.1973 21.7734 45.5479C21.6467 45.4067 21.4047 45.1378 21.2031 44.8525C21.1024 44.71 21.0048 44.5541 20.9365 44.4014C20.8727 44.2585 20.8138 44.0727 20.8467 43.8877C20.8675 43.7687 20.9261 43.6435 20.9912 43.5283C21.0599 43.4069 21.1509 43.2696 21.2588 43.1211C21.475 42.8235 21.7709 42.4623 22.1191 42.0625C22.8165 41.262 23.7394 40.2885 24.6914 39.3184C26.5929 37.3807 28.6331 35.4376 29.2627 34.9072L29.332 34.8496L29.4219 34.8389Z" fill="white" stroke="white" stroke-width="0.6"/>
<path d="M24 18.8496C24.6877 18.6762 25.4106 18.9134 25.8643 19.4492L25.9512 19.5605C26.3925 20.174 26.418 20.9976 26.0107 21.6367V21.6377C25.6012 22.2755 24.8462 22.6021 24.1006 22.458C23.4052 22.323 22.849 21.8027 22.666 21.126L22.6348 20.9883C22.4534 20.025 23.0507 19.088 24 18.8496Z" fill="white" stroke="white" stroke-width="0.6"/>
<path d="M18.123 18.8652C18.9365 18.6775 19.776 19.0557 20.1709 19.792C20.5652 20.5274 20.4182 21.4345 19.8115 22.0078C19.2437 22.5491 18.4016 22.6657 17.7129 22.3193L17.5781 22.2441C16.8642 21.8088 16.5317 20.9504 16.7666 20.1484C16.9519 19.5063 17.4722 19.0156 18.123 18.8652Z" fill="white" stroke="white" stroke-width="0.6"/>
<path d="M30.3262 18.8701C31.0471 18.7072 31.7973 18.9924 32.2246 19.5986L32.2998 19.7139C32.6525 20.3017 32.6449 21.0448 32.2744 21.6299C31.879 22.2539 31.145 22.581 30.416 22.4521V22.4512C29.733 22.3329 29.1806 21.8376 28.9824 21.1816L28.9473 21.0488C28.7277 20.0663 29.3439 19.0929 30.3262 18.8701Z" fill="white" stroke="white" stroke-width="0.6"/>
</svg>
