<svg width="80" height="80" viewBox="0 0 80 80" fill="none" xmlns="http://www.w3.org/2000/svg">
<path d="M55.6982 25.6182V25.6191C55.9508 25.6082 56.1847 25.7243 56.3496 25.916C56.5201 26.1119 56.6093 26.3744 56.6094 26.6416V66.3105C56.6093 66.5691 56.5235 66.8264 56.3633 67.0205L56.3623 67.0215C56.1988 67.216 55.9695 67.3331 55.7227 67.3301L49.1191 67.3311C48.8731 67.331 48.6454 67.2139 48.4834 67.0176C48.3466 66.8517 48.2669 66.6423 48.2461 66.4248L48.2148 66.4033V26.6416C48.215 26.1165 48.575 25.6182 49.0967 25.6182H55.6982ZM31.2598 44.8701C31.7816 44.8701 32.1387 45.3664 32.1387 45.8916V66.3096C32.1387 66.8348 31.7816 67.3301 31.2598 67.3301H24.6562V67.3291C24.4094 67.332 24.1801 67.2159 24.0166 67.0215L24.0156 67.0205C23.8553 66.8263 23.7695 66.5684 23.7695 66.3096V45.8916C23.7695 45.6329 23.8553 45.3749 24.0156 45.1807L24.0166 45.1797C24.18 44.9852 24.4095 44.8672 24.6562 44.8701H31.2598ZM43.4912 35.5869C43.7385 35.5869 43.9677 35.708 44.1289 35.9033C44.2899 36.0984 44.3724 36.3558 44.3701 36.6162V66.3096C44.37 66.8347 44.013 67.3301 43.4912 67.3301H36.8877C36.3676 67.3301 36.0047 66.8368 36.002 66.3105V36.6162C36.002 36.0849 36.364 35.5869 36.8877 35.5869H43.4912ZM50.0078 65.2637H54.8418V27.6709H50.0078V65.2637ZM37.7461 65.2637H42.6328V37.6396H37.7461V65.2637ZM25.5371 65.2637H30.3721V46.9229H25.5371V65.2637ZM13.3057 65.2637H18.1396V56.3984H13.3057V65.2637ZM19.9072 66.3105C19.9045 66.8362 19.5442 67.3299 19.0215 67.3301H12.4199C12.1721 67.3301 11.9446 67.2141 11.7822 67.0176L11.7803 67.0156C11.6239 66.8225 11.5381 66.5688 11.5381 66.3096V55.3975C11.5382 54.8723 11.8982 54.374 12.4199 54.374H19.0215C19.5445 54.3742 19.9044 54.8686 19.9072 55.3965V66.3105ZM7.55859 71.3193H61.3232C61.5735 71.3167 61.8017 71.438 61.9639 71.6309L61.9668 71.6338C62.1253 71.8294 62.2112 72.0863 62.209 72.3486L62.2051 72.4463C62.1866 72.6732 62.1033 72.8914 61.9629 73.0615L61.9609 73.0645C61.7993 73.2532 61.5714 73.3738 61.3232 73.3711V73.3721H6.67676V73.3711C6.42856 73.3738 6.20066 73.2532 6.03906 73.0645L6.03711 73.0615C5.87665 72.8671 5.79102 72.6098 5.79102 72.3486V18.6006L5.79199 18.5918C5.83009 18.0933 6.18447 17.6543 6.6748 17.6543C7.16506 17.6544 7.51952 18.0933 7.55762 18.5918L7.55859 18.6006V71.3193Z" fill="white" stroke="white" stroke-width="0.41791"/>
</svg>
