<svg width="80" height="80" viewBox="0 0 80 80" fill="none" xmlns="http://www.w3.org/2000/svg">
<path d="M65.042 10.9971C66.3884 9.5677 68.6046 9.43404 70.1094 10.6621L70.252 10.7861L70.2539 10.7881H70.2549C71.7592 12.1437 71.9051 14.4572 70.5781 15.9902L55.9678 32.8691C56.4182 35.0949 58.3191 36.9604 60.626 37.0762L60.8535 37.0811L61.3711 37.0576L61.7842 37.0293C63.8471 36.9383 65.8694 37.648 67.4238 39.0195C69.0707 40.4744 70.0448 42.5409 70.1201 44.7275H70.1211C70.1464 44.9864 70.1514 45.2435 70.1514 45.4961C70.1514 59.0752 56.4359 70.1748 39.4893 70.1748C22.54 70.1747 8.8252 59.0751 8.8252 45.4961C8.82549 31.9201 22.5402 20.8214 39.4893 20.8213C48.163 20.8213 51.6407 22.7391 52.9971 23.8047L65.042 10.9971ZM39.4902 23.3516C23.9795 23.3516 11.3555 33.2359 11.3555 45.4971C11.3558 57.7615 23.9804 67.6445 39.4902 67.6445C54.995 67.6445 67.6171 57.7645 67.6221 45.5039L67.5947 44.8574V44.8555C67.5497 43.3444 66.8806 41.9181 65.75 40.917V40.916C64.614 39.9152 63.1187 39.43 61.6191 39.5752H61.6182C61.369 39.5973 61.113 39.6113 60.8535 39.6113C57.8483 39.6113 55.2535 37.6812 54.0518 35.084L49.3125 40.5605C48.6958 45.288 45.3169 47.3673 42.0537 48.2275H42.0527C40.4664 48.6451 38.9111 48.7695 37.7539 48.7891C37.1748 48.7989 36.6937 48.7824 36.3574 48.7637C36.1893 48.7543 36.0572 48.744 35.9668 48.7363C35.9217 48.7325 35.8869 48.7299 35.8633 48.7275C35.8514 48.7264 35.8421 48.7253 35.8359 48.7246C35.833 48.7243 35.8307 48.7238 35.8291 48.7236H35.8252C35.3939 48.6733 35.0136 48.4083 34.8262 48.0146V48.0137C34.6375 47.6196 34.663 47.1585 34.8936 46.7891V46.7881C36.2511 44.6371 36.02 42.9975 35.998 41.4541C35.9788 40.0854 36.0993 38.7883 37.0146 37.4336C38.8334 34.7453 41.6297 34.4754 42.9268 34.5146L51.251 25.6621C50.0497 24.8128 46.9686 23.3516 39.4902 23.3516ZM34.7656 52.3604C38.0704 52.3604 40.7549 55.045 40.7549 58.3525C40.7548 61.6573 38.0704 64.3418 34.7656 64.3418C31.4582 64.3418 28.7745 61.6574 28.7744 58.3525C28.7744 55.0451 31.4581 52.3604 34.7656 52.3604ZM50.54 50.1338C53.8474 50.1338 56.5322 52.8154 56.5322 56.123C56.532 59.4303 53.8475 62.1143 50.54 62.1143C47.2328 62.114 44.552 59.4302 44.5518 56.123C44.5518 52.8157 47.2327 50.134 50.54 50.1338ZM34.7656 54.8906C32.8557 54.8906 31.3037 56.4426 31.3037 58.3525C31.3038 60.2623 32.8555 61.8115 34.7656 61.8115C36.6729 61.8115 38.2246 60.2624 38.2246 58.3525C38.2246 56.4425 36.6728 54.8906 34.7656 54.8906ZM50.54 52.6631C48.6303 52.6633 47.0811 54.2132 47.0811 56.123C47.0813 58.0328 48.6306 59.5847 50.54 59.585C52.4499 59.585 54.0017 58.0328 54.002 56.123C54.002 54.2133 52.4502 52.6631 50.54 52.6631ZM21.8525 44.2324C25.16 44.2324 27.8447 46.9161 27.8447 50.2236C27.8447 53.5285 25.16 56.2129 21.8525 56.2129C18.5452 56.2128 15.8613 53.5285 15.8613 50.2236C15.8613 46.9162 18.5451 44.2325 21.8525 44.2324ZM21.8525 46.7617C19.9427 46.7618 18.3906 48.3138 18.3906 50.2236C18.3906 52.1307 19.9426 53.6825 21.8525 53.6826C23.7626 53.6826 25.3145 52.1308 25.3145 50.2236C25.3144 48.3137 23.7625 46.7617 21.8525 46.7617ZM42.8926 37.0352C42.1395 36.9979 40.2926 37.1034 39.1104 38.8525V38.8535C38.5507 39.6796 38.4974 40.477 38.5176 41.3604L38.5469 42.2764L38.5518 42.752C38.5517 43.8088 38.4605 44.9587 37.9795 46.2529C38.9406 46.2253 40.1666 46.1108 41.4082 45.7832C43.7753 45.1567 46.203 43.7503 46.7578 40.5234L42.8926 37.0352ZM27.1982 30.0322C30.503 30.0322 33.1875 32.7167 33.1875 36.0215C33.1873 39.3261 30.5029 42.0098 27.1982 42.0098C23.8909 42.0098 21.2072 39.3261 21.207 36.0215C21.207 32.7167 23.8907 30.0322 27.1982 30.0322ZM27.1982 32.5615C25.2881 32.5615 23.7363 34.1117 23.7363 36.0215C23.7365 37.9311 25.2882 39.4805 27.1982 39.4805C29.1054 39.4805 30.657 37.9312 30.6572 36.0215C30.6572 34.1116 29.1056 32.5615 27.1982 32.5615ZM45.2393 35.7461L47.9902 38.2256L51.4092 34.2744L48.8193 31.9375L45.2393 35.7461ZM68.5566 12.6641C68.0738 12.2265 67.3324 12.2573 66.8877 12.7305L50.5547 30.0957L53.0635 32.3594L68.6641 14.3369C69.0794 13.8538 69.0433 13.1313 68.5859 12.6904L68.5566 12.6641Z" fill="white" stroke="white" stroke-width="0.348923"/>
</svg>
